<svg xmlns="http://www.w3.org/2000/svg" id="Layer_2" data-name="Layer 2" viewBox="0 0 248.86 110.55"><defs><style>      .cls-1 {        fill: #fff;      }    </style></defs><g id="Layer_1-2" data-name="Layer 1"><g><g><g><path class="cls-1" d="m20.63,71.87h72.66v-2.42l-9.69-7.57c-.67-.53-1.5-.81-2.36-.81H30.95c-.86,0-1.69.29-2.36.81l-9.69,7.57s-.37.28-.67.61c-.3.33-.47.6-.47.6h0c-.31.45-.49,1-.49,1.58v5.63c0,1.54,1.25,2.79,2.79,2.79h9.57v8.59l4.76-4.76,4.76,4.76v-8.59h54.13v-2.42h-54.13v-2.42h51.64v-1.53H22.15c-.42,0-.76.34-.76.76s.34.76.76.76h7.48v2.42h-9.01c-.52,0-.93-.42-.93-.93v-4.5c0-.52.42-.93.93-.93Z"></path><path class="cls-1" d="m78.47,25.51h-46.39c-2.24,0-4.07,1.82-4.07,4.07v22.14c0,2.24,1.82,4.07,4.07,4.07h46.39c2.24,0,4.07-1.82,4.07-4.07v-22.14c0-2.24-1.82-4.07-4.07-4.07Zm.91,26.2c0,.5-.42.91-.91.91h-46.39c-.5,0-.91-.42-.91-.91v-22.14c0-.5.42-.91.91-.91h46.39c.5,0,.91.42.91.91v22.14Z"></path></g><path class="cls-1" d="m55.28,110.55C24.8,110.55,0,85.76,0,55.28S24.8,0,55.28,0s55.28,24.8,55.28,55.28-24.8,55.28-55.28,55.28Zm0-106.99C26.76,3.56,3.56,26.76,3.56,55.28s23.2,51.72,51.72,51.72,51.72-23.2,51.72-51.72S83.79,3.56,55.28,3.56Z"></path></g><g><g><path class="cls-1" d="m127.51,34.38l2.14-2.92c1.27,1.05,2.72,1.76,4.24,1.76,1.07,0,1.63-.47,1.63-1.14v-.02c0-.62-.47-1-2.3-1.65-2.94-1-5.02-2.07-5.02-4.91v-.07c0-2.83,2.16-4.82,5.58-4.82,2.1,0,3.95.58,5.58,1.9l-2.03,2.99c-1.07-.83-2.36-1.43-3.64-1.43-.91,0-1.43.45-1.43,1.03v.02c0,.69.49,1.05,2.48,1.78,2.97.96,4.82,2.16,4.82,4.82v.04c0,3.03-2.34,4.91-5.69,4.91-2.32,0-4.53-.71-6.36-2.3Zm4.46,7.27c1.2-.13,1.65-.56,1.61-1.34h-1.43v-2.74h3.28v2.28c0,2.07-1.23,2.86-3.28,2.97l-.18-1.16Z"></path><path class="cls-1" d="m140.81,28.8v-.27c0-4.82,3.15-7.96,7.25-7.96,2.45,0,4.13.96,5.4,2.45l-2.59,2.74c-.67-.8-1.52-1.47-2.74-1.47-1.83,0-3.19,1.63-3.19,4.28v.09c0,2.79,1.38,4.33,3.19,4.33,1.34,0,2.14-.71,2.86-1.54l2.54,2.59c-1.27,1.56-3.01,2.68-5.62,2.68-3.99,0-7.09-3.06-7.09-7.92Z"></path><path class="cls-1" d="m154.1,28.82v-.33c0-4.66,3.06-7.94,7.25-7.94s7.23,3.23,7.23,7.92v.33c0,4.66-3.06,7.94-7.25,7.94s-7.23-3.23-7.23-7.92Zm10.37-.04v-.25c0-2.7-1.29-4.35-3.15-4.35s-3.12,1.63-3.12,4.33v.25c0,2.7,1.29,4.35,3.15,4.35s3.12-1.63,3.12-4.33Z"></path><path class="cls-1" d="m174.07,20.75h4.06l5.51,15.71h-4.22l-.91-2.81h-4.91l-.89,2.81h-4.13l5.49-15.71Zm3.44,9.68l-1.45-4.57-1.45,4.57h2.9Z"></path><path class="cls-1" d="m184.86,20.84h4.02v12h6.13v3.61h-10.15v-15.62Z"></path><path class="cls-1" d="m200.99,20.75h4.06l5.51,15.71h-4.22l-.91-2.81h-4.91l-.89,2.81h-4.13l5.49-15.71Zm3.44,9.68l-1.45-4.57-1.45,4.57h2.9Z"></path></g><g><path class="cls-1" d="m127.29,47.62h4.02v15.62h-4.02v-15.62Z"></path><path class="cls-1" d="m133.72,47.62h3.77l5.2,7.85v-7.85h3.95v15.62h-3.57l-5.4-8.19v8.19h-3.95v-15.62Z"></path><path class="cls-1" d="m148.93,47.62h10.62v3.61h-6.6v2.77h5.93v3.46h-5.93v5.78h-4.02v-15.62Z"></path><path class="cls-1" d="m160.71,55.61v-.33c0-4.66,3.06-7.94,7.25-7.94s7.23,3.23,7.23,7.92v.33c0,4.66-3.06,7.94-7.25,7.94s-7.23-3.23-7.23-7.92Zm10.37-.04v-.25c0-2.7-1.29-4.35-3.15-4.35s-3.12,1.63-3.12,4.33v.25c0,2.7,1.29,4.35,3.15,4.35s3.12-1.63,3.12-4.33Z"></path><path class="cls-1" d="m177.06,47.62h6.13c2.1,0,3.68.56,4.69,1.58.87.87,1.36,2.07,1.36,3.66v.11c0,2.32-1.14,3.77-2.79,4.6l3.21,5.67h-4.53l-2.65-4.84h-1.43v4.84h-3.99v-15.62Zm5.98,7.58c1.36,0,2.16-.78,2.16-2.03v-.04c0-1.34-.85-2.01-2.19-2.01h-1.96v4.08h1.99Z"></path><path class="cls-1" d="m191.04,47.62h4.13l3.17,5.76,3.15-5.76h4.15v15.62h-3.97v-8.79l-3.32,5.8h-.07l-3.32-5.76v8.75h-3.9v-15.62Z"></path><path class="cls-1" d="m212.37,47.53h4.06l5.51,15.71h-4.22l-.91-2.81h-4.91l-.89,2.81h-4.13l5.49-15.71Zm3.44,9.68l-1.45-4.57-1.45,4.57h2.9Z"></path><path class="cls-1" d="m223.17,47.62h4.02v12h6.13v3.61h-10.15v-15.62Z"></path><path class="cls-1" d="m239.29,47.53h4.06l5.51,15.71h-4.22l-.91-2.81h-4.91l-.89,2.81h-4.13l5.49-15.71Zm-1.85-4.02h2.32c.22.6.69.94,1.56.94s1.34-.33,1.56-.94h2.3c-.2,2.05-1.67,3.08-3.86,3.08s-3.66-1.03-3.88-3.08Zm5.29,13.7l-1.45-4.57-1.45,4.57h2.9Z"></path></g><g><path class="cls-1" d="m127.23,74.39h5.13c5.02,0,7.88,3.03,7.88,7.63v.27c0,4.6-2.88,7.72-7.94,7.72h-5.06v-15.62Zm4.02,3.59v8.43h1.16c2.23,0,3.73-1.32,3.73-4.11v-.2c0-2.81-1.49-4.13-3.73-4.13h-1.16Z"></path><path class="cls-1" d="m142.1,74.39h10.75v3.52h-6.78v2.57h6.11v3.32h-6.11v2.68h6.87v3.52h-10.84v-15.62Z"></path><path class="cls-1" d="m160.19,74.39h4.02v15.62h-4.02v-15.62Z"></path><path class="cls-1" d="m169.76,78h-3.86v-3.61h11.73v3.61h-3.86v12h-4.02v-12Z"></path><path class="cls-1" d="m187.98,78.36c0,.71-.18,1.37-.53,1.99-.36.61-.84,1.1-1.45,1.45-.61.35-1.28.53-1.99.53s-1.37-.18-1.98-.53c-.61-.35-1.1-.84-1.45-1.45-.36-.61-.53-1.28-.53-1.99s.18-1.37.53-1.98c.36-.62.84-1.1,1.45-1.45.61-.35,1.27-.53,1.98-.53s1.37.18,1.99.53c.61.35,1.1.84,1.45,1.45s.53,1.28.53,1.98Zm-.77,0c0-.88-.31-1.64-.94-2.27-.63-.63-1.38-.94-2.27-.94s-1.64.31-2.27.94c-.63.63-.94,1.38-.94,2.27s.31,1.64.94,2.27c.63.63,1.38.94,2.27.94s1.64-.31,2.27-.94c.63-.63.94-1.38.94-2.27Zm-5.01-2.12h1.9c.54,0,.93.11,1.17.33.24.22.36.51.36.87,0,.28-.09.53-.28.74s-.47.36-.87.45c.16.06.28.13.36.2.11.1.22.24.34.43,0,.01.24.42.69,1.23h-1.25c-.41-.81-.68-1.29-.82-1.45-.14-.16-.28-.24-.42-.24-.03,0-.07,0-.13.02v1.67h-1.06v-4.25Zm1.06,1.8h.46c.31,0,.52-.05.65-.15s.19-.23.19-.38-.06-.28-.18-.38c-.12-.1-.32-.15-.61-.15h-.5v1.06Z"></path></g></g></g></g></svg>